<mxfile host="app.diagrams.net" modified="2020-12-29T16:35:16.822Z" agent="5.0 (Macintosh; Intel Mac OS X 11_1_0) AppleWebKit/537.36 (KHTML, like Gecko) Chrome/87.0.4280.88 Safari/537.36" etag="tSEz8E7-BXS_W7shXcWJ" version="14.1.3" type="github">
  <diagram id="PffN_bsT8aRa2yTWeAjf" name="Page-1">
    <mxGraphModel dx="1188" dy="688" grid="1" gridSize="10" guides="1" tooltips="1" connect="1" arrows="1" fold="1" page="1" pageScale="1" pageWidth="850" pageHeight="1100" math="0" shadow="0">
      <root>
        <mxCell id="0" />
        <mxCell id="1" parent="0" />
        <mxCell id="-Exwu2HSpH4n07PW5J_k-1" value="Admin" style="shape=umlActor;verticalLabelPosition=bottom;verticalAlign=top;html=1;outlineConnect=0;" vertex="1" parent="1">
          <mxGeometry x="50" y="260" width="30" height="60" as="geometry" />
        </mxCell>
        <mxCell id="-Exwu2HSpH4n07PW5J_k-4" value="" style="whiteSpace=wrap;html=1;aspect=fixed;" vertex="1" parent="1">
          <mxGeometry x="140" y="80" width="570" height="570" as="geometry" />
        </mxCell>
        <object label="User" id="-Exwu2HSpH4n07PW5J_k-6">
          <mxCell style="shape=umlActor;verticalLabelPosition=bottom;verticalAlign=top;html=1;outlineConnect=0;fontFamily=Times New Roman;" vertex="1" parent="1">
            <mxGeometry x="760" y="260" width="30" height="60" as="geometry" />
          </mxCell>
        </object>
        <mxCell id="-Exwu2HSpH4n07PW5J_k-8" value="Đăng xuất" style="ellipse;whiteSpace=wrap;html=1;" vertex="1" parent="1">
          <mxGeometry x="360" y="310" width="90" height="40" as="geometry" />
        </mxCell>
        <mxCell id="-Exwu2HSpH4n07PW5J_k-12" value="" style="endArrow=none;html=1;entryX=0;entryY=0.5;entryDx=0;entryDy=0;" edge="1" parent="1" source="-Exwu2HSpH4n07PW5J_k-1" target="-Exwu2HSpH4n07PW5J_k-8">
          <mxGeometry width="50" height="50" relative="1" as="geometry">
            <mxPoint x="90" y="270" as="sourcePoint" />
            <mxPoint x="620" y="380" as="targetPoint" />
          </mxGeometry>
        </mxCell>
        <mxCell id="-Exwu2HSpH4n07PW5J_k-13" value="" style="endArrow=none;html=1;exitX=1;exitY=0.5;exitDx=0;exitDy=0;" edge="1" parent="1" source="-Exwu2HSpH4n07PW5J_k-8" target="-Exwu2HSpH4n07PW5J_k-6">
          <mxGeometry width="50" height="50" relative="1" as="geometry">
            <mxPoint x="570" y="430" as="sourcePoint" />
            <mxPoint x="750" y="281" as="targetPoint" />
          </mxGeometry>
        </mxCell>
        <mxCell id="-Exwu2HSpH4n07PW5J_k-15" value="" style="endArrow=none;html=1;entryX=0.102;entryY=0.789;entryDx=0;entryDy=0;entryPerimeter=0;" edge="1" parent="1" source="-Exwu2HSpH4n07PW5J_k-1" target="-Exwu2HSpH4n07PW5J_k-28">
          <mxGeometry width="50" height="50" relative="1" as="geometry">
            <mxPoint x="570" y="430" as="sourcePoint" />
            <mxPoint x="200" y="260" as="targetPoint" />
          </mxGeometry>
        </mxCell>
        <mxCell id="-Exwu2HSpH4n07PW5J_k-16" value="Đăng nhập" style="ellipse;whiteSpace=wrap;html=1;" vertex="1" parent="1">
          <mxGeometry x="232.5" y="560" width="95" height="40" as="geometry" />
        </mxCell>
        <mxCell id="-Exwu2HSpH4n07PW5J_k-26" value="Guest" style="shape=umlActor;verticalLabelPosition=bottom;verticalAlign=top;html=1;outlineConnect=0;" vertex="1" parent="1">
          <mxGeometry x="395" y="670" width="30" height="60" as="geometry" />
        </mxCell>
        <mxCell id="-Exwu2HSpH4n07PW5J_k-28" value="quản lý điểm" style="ellipse;whiteSpace=wrap;html=1;" vertex="1" parent="1">
          <mxGeometry x="220" y="100" width="100" height="40" as="geometry" />
        </mxCell>
        <mxCell id="-Exwu2HSpH4n07PW5J_k-29" value="quản lý thông tin sinh viên" style="ellipse;whiteSpace=wrap;html=1;" vertex="1" parent="1">
          <mxGeometry x="220" y="170" width="110" height="40" as="geometry" />
        </mxCell>
        <mxCell id="-Exwu2HSpH4n07PW5J_k-32" value="quản lý lớp học" style="ellipse;whiteSpace=wrap;html=1;" vertex="1" parent="1">
          <mxGeometry x="260" y="230" width="100" height="40" as="geometry" />
        </mxCell>
        <mxCell id="-Exwu2HSpH4n07PW5J_k-36" value="" style="endArrow=none;html=1;entryX=0.582;entryY=0.988;entryDx=0;entryDy=0;entryPerimeter=0;exitX=0;exitY=0.3333333333333333;exitDx=0;exitDy=0;exitPerimeter=0;" edge="1" parent="1" source="-Exwu2HSpH4n07PW5J_k-26" target="-Exwu2HSpH4n07PW5J_k-16">
          <mxGeometry width="50" height="50" relative="1" as="geometry">
            <mxPoint x="390" y="680" as="sourcePoint" />
            <mxPoint x="460" y="510" as="targetPoint" />
          </mxGeometry>
        </mxCell>
        <mxCell id="-Exwu2HSpH4n07PW5J_k-42" value="Xem thông tin sinh viên" style="ellipse;whiteSpace=wrap;html=1;" vertex="1" parent="1">
          <mxGeometry x="420" y="440" width="110" height="40" as="geometry" />
        </mxCell>
        <mxCell id="-Exwu2HSpH4n07PW5J_k-43" value="Xem thông tin lớp" style="ellipse;whiteSpace=wrap;html=1;" vertex="1" parent="1">
          <mxGeometry x="270" y="400" width="105" height="40" as="geometry" />
        </mxCell>
        <mxCell id="-Exwu2HSpH4n07PW5J_k-48" value="" style="endArrow=none;html=1;exitX=1;exitY=0.5;exitDx=0;exitDy=0;" edge="1" parent="1" source="-Exwu2HSpH4n07PW5J_k-43" target="-Exwu2HSpH4n07PW5J_k-6">
          <mxGeometry width="50" height="50" relative="1" as="geometry">
            <mxPoint x="575.3553390593333" y="594.3933982822" as="sourcePoint" />
            <mxPoint x="470" y="380" as="targetPoint" />
          </mxGeometry>
        </mxCell>
        <mxCell id="-Exwu2HSpH4n07PW5J_k-50" value="" style="endArrow=none;html=1;entryX=0;entryY=0.5;entryDx=0;entryDy=0;exitX=1;exitY=0.3333333333333333;exitDx=0;exitDy=0;exitPerimeter=0;" edge="1" parent="1" source="-Exwu2HSpH4n07PW5J_k-1" target="-Exwu2HSpH4n07PW5J_k-29">
          <mxGeometry width="50" height="50" relative="1" as="geometry">
            <mxPoint x="90" y="266.20000000000005" as="sourcePoint" />
            <mxPoint x="200" y="165" as="targetPoint" />
          </mxGeometry>
        </mxCell>
        <mxCell id="-Exwu2HSpH4n07PW5J_k-51" value="" style="endArrow=none;html=1;entryX=0;entryY=0.5;entryDx=0;entryDy=0;" edge="1" parent="1" source="-Exwu2HSpH4n07PW5J_k-1" target="-Exwu2HSpH4n07PW5J_k-32">
          <mxGeometry width="50" height="50" relative="1" as="geometry">
            <mxPoint x="90" y="270" as="sourcePoint" />
            <mxPoint x="295" y="215" as="targetPoint" />
          </mxGeometry>
        </mxCell>
        <mxCell id="-Exwu2HSpH4n07PW5J_k-53" value="" style="endArrow=none;html=1;exitX=0.92;exitY=0.217;exitDx=0;exitDy=0;exitPerimeter=0;" edge="1" parent="1" source="-Exwu2HSpH4n07PW5J_k-42" target="-Exwu2HSpH4n07PW5J_k-6">
          <mxGeometry width="50" height="50" relative="1" as="geometry">
            <mxPoint x="544" y="450" as="sourcePoint" />
            <mxPoint x="750" y="350" as="targetPoint" />
          </mxGeometry>
        </mxCell>
        <mxCell id="-Exwu2HSpH4n07PW5J_k-56" value="Xem điểm" style="ellipse;whiteSpace=wrap;html=1;" vertex="1" parent="1">
          <mxGeometry x="535" y="500" width="100" height="30" as="geometry" />
        </mxCell>
        <mxCell id="-Exwu2HSpH4n07PW5J_k-57" value="" style="endArrow=none;html=1;exitX=0.681;exitY=0.067;exitDx=0;exitDy=0;exitPerimeter=0;" edge="1" parent="1" source="-Exwu2HSpH4n07PW5J_k-56" target="-Exwu2HSpH4n07PW5J_k-6">
          <mxGeometry width="50" height="50" relative="1" as="geometry">
            <mxPoint x="480" y="460" as="sourcePoint" />
            <mxPoint x="530" y="410" as="targetPoint" />
          </mxGeometry>
        </mxCell>
        <mxCell id="-Exwu2HSpH4n07PW5J_k-60" value="Đăng ký môn học" style="ellipse;whiteSpace=wrap;html=1;" vertex="1" parent="1">
          <mxGeometry x="440" y="220" width="110" height="40" as="geometry" />
        </mxCell>
        <mxCell id="-Exwu2HSpH4n07PW5J_k-62" value="" style="endArrow=none;html=1;entryX=1;entryY=0.5;entryDx=0;entryDy=0;exitX=0;exitY=0.3333333333333333;exitDx=0;exitDy=0;exitPerimeter=0;" edge="1" parent="1" source="-Exwu2HSpH4n07PW5J_k-6" target="-Exwu2HSpH4n07PW5J_k-60">
          <mxGeometry width="50" height="50" relative="1" as="geometry">
            <mxPoint x="480" y="440" as="sourcePoint" />
            <mxPoint x="530" y="390" as="targetPoint" />
          </mxGeometry>
        </mxCell>
        <mxCell id="-Exwu2HSpH4n07PW5J_k-63" value="Xem thời khoá biểu" style="ellipse;whiteSpace=wrap;html=1;" vertex="1" parent="1">
          <mxGeometry x="530" y="140" width="110" height="40" as="geometry" />
        </mxCell>
        <mxCell id="-Exwu2HSpH4n07PW5J_k-64" value="" style="endArrow=none;html=1;exitX=1;exitY=0.5;exitDx=0;exitDy=0;" edge="1" parent="1" source="-Exwu2HSpH4n07PW5J_k-63">
          <mxGeometry width="50" height="50" relative="1" as="geometry">
            <mxPoint x="480" y="440" as="sourcePoint" />
            <mxPoint x="760" y="266" as="targetPoint" />
          </mxGeometry>
        </mxCell>
        <mxCell id="-Exwu2HSpH4n07PW5J_k-65" value="" style="endArrow=none;html=1;exitX=0.25;exitY=0.1;exitDx=0;exitDy=0;exitPerimeter=0;entryX=0.5;entryY=1;entryDx=0;entryDy=0;" edge="1" parent="1" source="-Exwu2HSpH4n07PW5J_k-26" target="-Exwu2HSpH4n07PW5J_k-43">
          <mxGeometry width="50" height="50" relative="1" as="geometry">
            <mxPoint x="480" y="440" as="sourcePoint" />
            <mxPoint x="530" y="390" as="targetPoint" />
          </mxGeometry>
        </mxCell>
        <mxCell id="-Exwu2HSpH4n07PW5J_k-66" value="" style="endArrow=none;html=1;entryX=0.75;entryY=0.1;entryDx=0;entryDy=0;entryPerimeter=0;exitX=0.374;exitY=0.988;exitDx=0;exitDy=0;exitPerimeter=0;" edge="1" parent="1" source="-Exwu2HSpH4n07PW5J_k-42" target="-Exwu2HSpH4n07PW5J_k-26">
          <mxGeometry width="50" height="50" relative="1" as="geometry">
            <mxPoint x="480" y="440" as="sourcePoint" />
            <mxPoint x="530" y="390" as="targetPoint" />
          </mxGeometry>
        </mxCell>
        <mxCell id="-Exwu2HSpH4n07PW5J_k-67" value="" style="endArrow=none;html=1;exitX=1;exitY=0.3333333333333333;exitDx=0;exitDy=0;exitPerimeter=0;" edge="1" parent="1" source="-Exwu2HSpH4n07PW5J_k-26" target="-Exwu2HSpH4n07PW5J_k-56">
          <mxGeometry width="50" height="50" relative="1" as="geometry">
            <mxPoint x="480" y="440" as="sourcePoint" />
            <mxPoint x="530" y="390" as="targetPoint" />
          </mxGeometry>
        </mxCell>
      </root>
    </mxGraphModel>
  </diagram>
</mxfile>
